<svg version="1.1" id="Layer_1" xmlns="http://www.w3.org/2000/svg" xmlns:xlink="http://www.w3.org/1999/xlink" x="0px" y="0px"
	 width="100%" viewBox="0 0 321 333" xml:space="preserve">
<path fill="#242B33" opacity="0" stroke="none" 
	d="
M173.000000,334.000000 
	C115.333351,334.000000 58.166706,334.000000 1.000046,334.000000 
	C1.000031,223.000061 1.000031,112.000122 1.000015,1.000135 
	C107.999901,1.000090 214.999802,1.000090 321.999756,1.000045 
	C321.999847,111.999855 321.999847,222.999710 321.999939,333.999786 
	C272.500000,334.000000 223.000000,334.000000 173.000000,334.000000 
M233.396729,129.259583 
	C233.373535,128.807327 233.350357,128.355072 233.684189,127.558350 
	C233.237381,127.020325 232.790558,126.482307 232.290329,125.155289 
	C230.200363,120.085793 228.110413,115.016296 225.828476,109.547058 
	C225.636856,109.317039 225.410522,109.128723 224.928680,108.285774 
	C223.446884,106.731712 221.965073,105.177650 220.395477,103.602554 
	C220.395477,103.602554 220.374527,103.514732 221.134888,103.092567 
	C219.771927,101.222702 218.408966,99.352829 217.068130,96.887924 
	C216.452255,96.234970 215.836380,95.582008 214.613129,94.621895 
	C209.188095,90.691116 203.763077,86.760330 197.900223,82.256920 
	C194.986588,81.041458 192.072937,79.825996 188.720932,78.197067 
	C188.146606,78.169281 187.572296,78.141495 186.513260,77.977692 
	C186.352661,77.929016 186.192078,77.880333 185.804947,77.175713 
	C185.023422,76.880821 184.241898,76.585922 183.154068,76.328453 
	C183.154068,76.328453 182.992371,76.065620 183.022751,75.346001 
	C183.684738,73.611366 184.346741,71.876724 185.750305,70.134399 
	C190.811905,72.151428 195.873489,74.168457 201.228424,76.700089 
	C201.774811,76.909767 202.321198,77.119438 203.237518,77.836418 
	C204.482681,78.578476 205.727859,79.320534 207.253159,80.535477 
	C207.944977,81.126625 208.636780,81.717781 209.231903,83.048393 
	C209.527328,84.932304 209.948090,86.565056 212.832977,84.814552 
	C218.275162,90.858658 223.717361,96.902763 229.263153,103.673477 
	C231.105682,106.971954 232.948212,110.270432 234.848785,114.273483 
	C235.410248,115.838608 235.971710,117.403740 236.245331,119.699257 
	C237.088440,121.670959 237.931564,123.642662 238.741547,126.387260 
	C239.217575,129.254456 239.693604,132.121643 240.029694,135.813416 
	C240.186523,136.890503 240.343338,137.967590 240.647507,139.962662 
	C240.569580,144.986237 240.491638,150.009827 239.594101,154.998871 
	C234.967102,154.453217 235.116852,150.924225 235.006393,147.597321 
	C234.741470,139.616135 231.118240,137.221252 223.276428,140.114807 
	C223.836884,142.423447 224.404800,144.762833 224.208817,147.092712 
	C221.808380,146.281296 219.407959,145.469879 216.796371,144.077637 
	C216.085373,143.814438 215.374374,143.551239 214.748001,143.236511 
	C214.748001,143.236511 214.745300,143.335541 214.866776,142.500504 
	C214.086456,140.506012 213.306137,138.511520 212.525818,136.517014 
	C211.341614,138.044693 210.157425,139.572388 208.253571,141.082169 
	C206.503250,140.343689 204.752945,139.605209 202.884705,138.331604 
	C202.233627,138.286743 201.582550,138.241882 200.270126,138.475510 
	C192.859131,141.322540 185.448120,144.169556 177.618866,147.098923 
	C177.340347,147.203766 177.128937,147.386322 176.154984,147.741119 
	C175.508652,148.873276 174.456741,149.952087 174.299408,151.148544 
	C173.959396,153.734406 174.078125,156.380585 173.221634,159.030075 
	C170.965103,157.662369 168.708572,156.294647 166.295853,154.011200 
	C166.243393,140.428085 166.011597,126.841881 166.245895,113.263718 
	C166.317810,109.096207 165.123093,106.685028 160.765381,105.351074 
	C160.455902,105.917305 160.146423,106.483543 159.544495,107.936623 
	C159.511963,109.755951 159.460876,111.575172 159.449814,113.394630 
	C159.355255,128.937332 159.267960,144.480087 158.422409,160.046814 
	C156.209076,162.183365 153.995743,164.319931 151.013000,166.254776 
	C146.614426,166.200851 144.668457,164.020584 145.099869,159.611359 
	C145.261246,157.962204 145.135330,156.284958 145.141220,154.620529 
	C145.174667,145.163345 142.759659,142.957550 133.094589,143.829651 
	C133.094589,145.253662 133.094589,146.699631 133.094589,148.454376 
	C138.941528,148.067963 138.927017,151.891174 138.791870,156.037918 
	C138.630859,160.978912 137.784698,166.245560 143.833679,169.319626 
	C137.530212,172.269684 138.762283,177.529663 138.897446,182.191437 
	C139.022430,186.501083 138.548874,189.910095 132.856537,189.862915 
	C132.967728,191.724533 133.060928,193.285080 133.151886,194.808075 
	C142.581100,194.985626 144.919708,192.783829 145.115448,184.007675 
	C145.130203,183.346024 145.234116,182.686356 146.038101,182.023544 
	C150.255569,180.293945 154.428619,178.278992 159.468002,180.491470 
	C159.586517,180.647964 159.705048,180.804459 159.504562,181.838654 
	C159.610855,186.537537 159.717148,191.236404 159.500549,196.695465 
	C159.500549,211.712067 159.500549,226.728668 159.500549,242.117462 
	C161.754471,242.004745 163.377838,241.923553 165.555130,241.946548 
	C165.667862,241.631958 165.780579,241.317383 166.129822,240.091385 
	C166.075165,225.061371 166.020508,210.031342 166.181259,194.090439 
	C166.099777,189.393066 166.018311,184.695709 166.147751,179.090683 
	C166.247849,174.751297 166.347931,170.411926 167.281219,166.040268 
	C169.534485,166.023712 171.787735,166.007172 174.208542,166.847534 
	C174.424713,168.851807 174.640869,170.856079 174.640076,173.386597 
	C174.819092,173.911743 174.998093,174.436874 175.190826,175.707947 
	C177.028168,183.991104 182.083771,189.962204 188.762177,194.838074 
	C195.423157,199.701218 202.088531,203.792465 210.313660,196.860764 
	C210.572083,196.728500 210.792358,196.549347 211.627609,196.044144 
	C212.755981,195.106186 214.040237,194.302551 214.984787,193.206207 
	C218.443832,189.191284 221.789825,185.078949 225.864639,180.766205 
	C226.478439,178.585876 227.092239,176.405548 227.519150,173.452286 
	C227.717148,171.302261 227.915131,169.152222 228.838928,167.035324 
	C233.696121,170.762695 237.558105,174.927979 237.100372,181.775116 
	C236.942947,184.129868 235.468903,187.865952 240.552399,188.788452 
	C240.491348,192.175446 240.430283,195.562454 239.639465,198.988617 
	C238.172729,198.962463 236.706009,198.936310 235.111679,199.129990 
	C235.111679,199.129990 234.867294,199.060043 234.958527,198.449020 
	C234.630234,198.428619 234.301941,198.408218 233.249069,198.301407 
	C231.231949,200.103821 227.554062,201.831070 227.468536,203.720886 
	C226.932648,215.561646 227.197708,227.438660 227.197708,239.693314 
	C230.034180,239.818512 232.368027,239.921539 234.799942,240.028885 
	C234.977081,236.597031 235.120926,233.810074 236.107559,231.022476 
	C237.514435,230.996780 238.921310,230.971100 240.567856,231.771545 
	C240.644760,234.545898 240.721649,237.320267 240.995041,240.797089 
	C243.355164,240.960083 245.715286,241.123093 248.007401,241.281387 
	C248.007401,224.373749 248.007401,208.186050 248.115952,191.077621 
	C248.079620,187.052155 248.043289,183.026688 248.263794,178.231018 
	C248.179031,169.153305 248.094269,160.075607 248.116730,150.077072 
	C248.080246,146.051697 248.043762,142.026321 248.210678,137.445297 
	C247.792191,135.989441 247.373688,134.533569 247.031723,132.353226 
	C246.126907,127.585159 245.344696,122.789940 244.295639,118.053818 
	C240.154312,99.356918 228.858185,85.663994 213.211197,74.153519 
	C207.593506,71.261383 201.808014,68.649452 196.398483,65.409737 
	C188.775253,60.844269 180.442505,60.239532 171.368317,59.764690 
	C170.098785,59.630672 168.829239,59.496651 167.559692,59.362637 
	C168.057709,61.850956 168.555710,64.339279 169.832504,66.978065 
	C171.885880,67.343987 173.939255,67.709908 175.860550,68.784264 
	C175.223755,70.596535 174.586945,72.408813 173.099594,74.315880 
	C171.370438,74.315880 169.641266,74.315880 167.870514,74.315880 
	C167.870514,78.254128 167.870514,81.800728 167.870514,85.862503 
	C170.144531,85.862503 172.090561,85.862503 174.589203,86.159698 
	C175.408386,86.257500 176.227585,86.355293 177.662766,86.776176 
	C178.121658,86.800331 178.580536,86.824486 179.475739,87.174225 
	C179.999649,87.264053 180.523544,87.353889 181.644470,87.803131 
	C182.103119,87.844650 182.561752,87.886177 183.419983,88.327438 
	C183.955475,88.446228 184.490967,88.565018 185.522491,88.987144 
	C185.902603,89.038048 186.282730,89.088951 187.055740,89.639503 
	C188.047089,89.973518 189.038452,90.307526 190.610199,91.057800 
	C204.925766,98.008095 215.640274,108.554008 222.251556,123.579384 
	C222.826202,124.406601 223.400848,125.233818 223.998856,126.802086 
	C225.654129,129.237259 227.309387,131.672440 229.277634,134.754684 
	C231.265366,134.461182 235.870712,138.728989 234.545959,131.660873 
	C234.158386,131.087006 233.770813,130.513138 233.396729,129.259583 
M91.932190,198.612350 
	C90.366570,198.078796 88.800949,197.545242 87.012192,196.125641 
	C87.092377,193.088623 87.172554,190.051620 87.975052,187.015472 
	C89.172508,186.371399 90.369965,185.727341 91.567429,185.083282 
	C90.130798,183.717346 88.694160,182.351395 87.064804,180.067734 
	C86.920387,168.047821 86.775978,156.027924 86.850243,143.104660 
	C87.409302,138.079147 87.968361,133.053619 89.146027,127.702271 
	C89.312225,126.344704 89.478424,124.987129 89.682846,123.624931 
	C89.682846,123.624931 89.647873,123.609413 90.541176,123.793045 
	C92.058334,123.870567 93.575500,123.948090 95.116753,124.817467 
	C94.559608,127.334877 94.002464,129.852280 92.885330,132.789719 
	C92.801781,134.233505 92.718224,135.677277 92.634674,137.121063 
	C93.152039,137.000534 93.669403,136.879990 94.882980,136.444244 
	C96.925293,135.145782 99.775200,134.319260 100.860741,132.461685 
	C104.323097,126.536850 107.129875,120.228920 110.751633,113.720627 
	C122.627319,96.675217 138.788773,86.868591 159.427704,85.275558 
	C159.427704,81.278839 159.427704,77.736862 159.427704,74.108810 
	C156.998230,74.108810 155.016525,74.108810 152.682114,73.454544 
	C151.686478,71.727058 150.690826,69.999580 150.410568,67.995323 
	C153.473038,67.504997 156.535507,67.014671 159.578018,66.527542 
	C159.578018,63.790096 159.578018,61.387280 159.578018,58.606636 
	C147.934906,59.338093 136.996796,61.343060 126.187378,66.906700 
	C123.703972,68.328224 121.220566,69.749748 118.027679,71.374214 
	C107.873894,77.791527 99.327660,85.828903 92.528687,96.428780 
	C92.094864,97.292946 91.661041,98.157112 90.682892,99.525978 
	C87.847755,106.363380 85.012611,113.200783 81.831497,120.479919 
	C81.775017,121.020210 81.718544,121.560509 81.292824,122.764114 
	C81.217537,123.514595 81.142258,124.265076 80.702446,125.454445 
	C80.679504,126.002296 80.656555,126.550156 80.304077,127.830635 
	C80.231789,128.893799 80.159500,129.956970 79.746223,131.574081 
	C79.749672,132.417648 79.753120,133.261215 79.438698,134.930862 
	C79.415955,137.289764 79.393219,139.648651 79.156227,142.921707 
	C79.156227,175.449844 79.156227,207.977997 79.156227,240.590210 
	C82.021576,240.590210 84.270874,240.590210 86.784233,240.590210 
	C86.955795,237.235382 87.114815,234.125916 88.005898,231.022385 
	C89.465546,231.029068 90.925186,231.035767 92.645889,231.925705 
	C92.645889,234.524750 92.645889,237.123795 92.645889,239.685883 
	C95.734688,239.685883 98.111740,239.685883 100.546005,239.685883 
	C100.546005,228.863449 100.546005,218.433105 100.752647,207.212601 
	C101.759544,201.791519 98.269104,200.123001 93.232727,198.856247 
	C92.968269,198.893188 92.703819,198.930145 91.932190,198.612350 
M103.404442,182.782471 
	C104.342896,185.471848 100.951332,188.973648 105.195175,191.753616 
	C108.500916,193.124298 111.806656,194.494995 115.820541,196.159302 
	C115.820541,193.064529 115.820541,191.632477 115.820541,189.945190 
	C110.408623,190.022156 109.675789,186.783371 109.918633,182.373093 
	C110.178032,177.661865 111.050827,172.547684 106.636154,170.101944 
	C107.827759,167.176453 108.885719,164.579086 110.174690,161.250687 
	C110.104523,158.171753 110.034355,155.092834 110.233482,151.301865 
	C112.031097,150.192734 113.828705,149.083588 115.874344,147.821426 
	C115.874344,146.707626 115.874344,145.134598 115.874344,143.563965 
	C107.580391,143.566177 105.675377,144.647034 103.826180,150.780411 
	C103.840469,154.861496 103.854767,158.942596 103.361916,163.643631 
	C101.508705,164.807510 99.655495,165.971390 97.412750,167.379913 
	C97.412750,168.456161 97.412750,170.064468 97.412750,172.171051 
	C105.247047,171.625702 102.858582,177.772812 103.404442,182.782471 
M65.885490,250.409698 
	C65.522614,252.488312 65.159744,254.566940 64.797234,256.643463 
	C95.290222,256.643463 125.286888,256.643463 155.390732,256.643463 
	C155.390732,252.892212 155.390732,249.711929 155.390732,246.455063 
	C154.332947,246.383560 153.681381,246.285126 153.033127,246.303543 
	C124.949562,247.100327 96.866081,247.899963 68.784035,248.747208 
	C67.875534,248.774628 66.982124,249.301941 65.885490,250.409698 
M171.371552,253.283401 
	C170.713303,256.988708 173.131226,256.726349 175.611313,256.735107 
	C203.074493,256.831879 230.537476,256.983276 258.000519,257.118134 
	C259.627808,257.126129 261.255157,257.119171 263.299896,257.119171 
	C262.744507,254.082657 262.275513,251.518341 261.757416,248.685822 
	C231.585205,247.893982 201.726578,247.110367 171.380829,246.313980 
	C171.380829,248.807144 171.380829,250.607132 171.371552,253.283401 
z"/>
<path fill="#F1F3F2" opacity="1.000000" stroke="none" 
	d="
M65.983589,250.002960 
	C66.982124,249.301941 67.875534,248.774628 68.784035,248.747208 
	C96.866081,247.899963 124.949562,247.100327 153.033127,246.303543 
	C153.681381,246.285126 154.332947,246.383560 155.390732,246.455063 
	C155.390732,249.711929 155.390732,252.892212 155.390732,256.643463 
	C125.286888,256.643463 95.290222,256.643463 64.797234,256.643463 
	C65.159744,254.566940 65.522614,252.488312 65.983589,250.002960 
z"/>
<path fill="#F0F2F1" opacity="1.000000" stroke="none" 
	d="
M171.376190,252.845276 
	C171.380829,250.607132 171.380829,248.807144 171.380829,246.313980 
	C201.726578,247.110367 231.585205,247.893982 261.757416,248.685822 
	C262.275513,251.518341 262.744507,254.082657 263.299896,257.119171 
	C261.255157,257.119171 259.627808,257.126129 258.000519,257.118134 
	C230.537476,256.983276 203.074493,256.831879 175.611313,256.735107 
	C173.131226,256.726349 170.713303,256.988708 171.376190,252.845276 
z"/>
<path fill="#FBFCFC" opacity="1.000000" stroke="none" 
	d="
M87.273827,231.016449 
	C87.114815,234.125916 86.955795,237.235382 86.784233,240.590210 
	C84.270874,240.590210 82.021576,240.590210 79.156227,240.590210 
	C79.156227,207.977997 79.156227,175.449844 79.618332,142.467529 
	C82.264153,142.678238 84.447853,143.343124 86.631561,144.008011 
	C86.775978,156.027924 86.920387,168.047821 87.052338,180.947296 
	C87.110832,183.556091 87.181786,185.285355 87.252739,187.014603 
	C87.172554,190.051620 87.092377,193.088623 87.020859,197.020996 
	C87.094345,201.935928 87.159172,205.955536 87.107193,210.432312 
	C87.084869,217.598465 87.179344,224.307465 87.273827,231.016449 
z"/>
<path fill="#F8F8F8" opacity="1.000000" stroke="none" 
	d="
M178.037125,147.016586 
	C185.448120,144.169556 192.859131,141.322540 200.805252,138.536407 
	C201.894455,138.687103 202.448547,138.776917 203.002625,138.866730 
	C204.752945,139.605209 206.503250,140.343689 208.846436,141.348312 
	C211.207962,142.188156 212.976624,142.761856 214.745300,143.335541 
	C214.745300,143.335541 214.748001,143.236511 214.820465,143.572327 
	C215.597809,144.158249 216.302673,144.408340 217.007538,144.658447 
	C219.407959,145.469879 221.808380,146.281296 224.858551,147.361725 
	C230.160355,150.282013 227.002563,154.526047 227.288223,158.017395 
	C225.434616,158.357758 223.915695,158.680283 222.297791,158.581390 
	C222.454910,154.589783 222.519089,151.118759 217.936371,149.713943 
	C216.925903,149.249512 215.971817,149.090744 214.641083,148.925323 
	C210.974289,147.750732 207.748016,146.317886 204.372498,145.503998 
	C201.948059,144.919418 199.159897,144.544937 196.824570,145.167252 
	C192.369385,146.354416 188.161530,148.437576 183.775497,149.926376 
	C180.189590,151.143524 178.669235,153.245163 179.013504,157.159958 
	C179.362076,161.124115 178.569031,165.223663 179.186676,169.119522 
	C179.825195,173.147217 180.737564,177.582138 183.008560,180.793350 
	C186.302216,185.450607 190.772125,189.337006 195.058563,193.198975 
	C196.614197,194.600555 199.706451,196.270859 201.035553,195.626831 
	C209.215027,191.663361 217.146988,187.133972 220.929916,178.065430 
	C222.442184,178.834900 223.657761,179.416275 224.948227,180.249496 
	C225.074890,180.668655 225.126648,180.835983 225.178406,181.003296 
	C221.789825,185.078949 218.443832,189.191284 214.984787,193.206207 
	C214.040237,194.302551 212.755981,195.106186 211.051422,196.098572 
	C210.287476,196.438782 210.099716,196.724579 209.911987,197.010376 
	C202.088531,203.792465 195.423157,199.701218 188.762177,194.838074 
	C182.083771,189.962204 177.028168,183.991104 175.352982,175.192261 
	C175.295761,174.071167 175.076401,173.465759 174.857025,172.860352 
	C174.640869,170.856079 174.424713,168.851807 174.241714,165.993896 
	C174.186310,163.094193 174.097748,161.048141 174.009186,159.002090 
	C174.078125,156.380585 173.959396,153.734406 174.299408,151.148544 
	C174.456741,149.952087 175.508652,148.873276 176.817062,147.829010 
	C177.665146,147.616806 177.851135,147.316696 178.037125,147.016586 
z"/>
<path fill="#F6F7F5" opacity="1.000000" stroke="none" 
	d="
M153.034805,74.108810 
	C155.016525,74.108810 156.998230,74.108810 159.427704,74.108810 
	C159.427704,77.736862 159.427704,81.278839 159.427704,85.275558 
	C138.788773,86.868591 122.627319,96.675217 110.042969,113.878487 
	C106.473083,113.329849 103.611870,112.623352 100.816498,111.567276 
	C102.711166,108.479912 104.540009,105.742126 106.715950,102.998123 
	C108.191147,102.419556 109.319244,101.847198 110.447350,101.274849 
	C109.912567,100.832489 109.377785,100.390137 108.949142,99.623642 
	C120.524178,85.331642 135.404419,77.319527 153.034805,74.108810 
z"/>
<path fill="#FAFAF9" opacity="1.000000" stroke="none" 
	d="
M186.997971,78.113701 
	C187.572296,78.141495 188.146606,78.169281 188.916809,78.803322 
	C190.538513,81.547691 191.732635,83.938698 193.572800,85.624550 
	C193.972321,85.990593 196.688736,83.827675 198.338043,82.829544 
	C203.763077,86.760330 209.188095,90.691116 214.974030,95.069382 
	C215.905273,96.172241 216.475632,96.827599 217.046005,97.482956 
	C218.408966,99.352829 219.771927,101.222702 220.402771,103.426224 
	C218.975357,104.281311 218.280075,104.802734 217.584793,105.324158 
	C217.878967,105.666489 218.173126,106.008827 218.467285,106.351166 
	C219.139282,105.441978 219.811279,104.532791 220.483276,103.623596 
	C221.965073,105.177650 223.446884,106.731712 225.006683,108.907669 
	C225.396622,109.668640 225.708527,109.807716 226.020447,109.946800 
	C228.110413,115.016296 230.200363,120.085793 232.172607,125.838989 
	C232.061996,126.953621 232.069107,127.384544 231.909821,128.131668 
	C230.817169,130.334457 229.890915,132.221039 228.964661,134.107620 
	C227.309387,131.672440 225.654129,129.237259 224.002808,126.109840 
	C223.496704,124.602486 222.986649,123.787376 222.476593,122.972275 
	C215.640274,108.554008 204.925766,98.008095 190.198090,90.531464 
	C188.744934,89.716713 187.703888,89.428284 186.662842,89.139854 
	C186.282730,89.088951 185.902603,89.038048 185.224518,88.586426 
	C184.291153,88.099709 183.655777,88.013710 183.020401,87.927704 
	C182.561752,87.886177 182.103119,87.844650 181.354355,87.386024 
	C181.028778,86.654373 181.004501,86.338974 181.165298,85.728561 
	C183.225449,82.994179 185.111710,80.553940 186.997971,78.113701 
z"/>
<path fill="#F8F8F8" opacity="1.000000" stroke="none" 
	d="
M213.740479,74.680466 
	C228.858185,85.663994 240.154312,99.356918 244.295639,118.053818 
	C245.344696,122.789940 246.126907,127.585159 246.895386,133.110474 
	C246.931870,135.190460 247.104721,136.513214 246.898865,137.916672 
	C245.020981,138.335403 243.521790,138.673447 242.013290,138.651718 
	C241.392532,137.190918 240.781082,136.089890 240.169647,134.988846 
	C239.693604,132.121643 239.217575,129.254456 238.821381,125.601334 
	C238.111862,122.866562 237.322525,120.917709 236.533173,118.968857 
	C235.971710,117.403740 235.410248,115.838608 234.846161,113.525780 
	C232.948883,109.500999 231.054214,106.223930 229.159546,102.946861 
	C223.717361,96.902763 218.275162,90.858658 212.365601,84.401993 
	C211.041702,83.429268 210.185150,82.869095 209.328598,82.308929 
	C208.636780,81.717781 207.944977,81.126625 207.286804,79.999710 
	C209.460449,77.869446 211.600464,76.274956 213.740479,74.680466 
z"/>
<path fill="#2E353C" opacity="1.000000" stroke="none" 
	d="
M152.858459,73.781677 
	C135.404419,77.319527 120.524178,85.331642 108.682251,99.738037 
	C107.662430,101.119164 107.015640,102.061752 106.368851,103.004341 
	C104.540009,105.742126 102.711166,108.479912 100.550949,111.781097 
	C98.510597,116.238197 96.801620,120.131905 95.092651,124.025620 
	C93.575500,123.948090 92.058334,123.870567 90.095116,123.321884 
	C92.598328,115.951256 95.547607,109.051788 98.743423,101.949371 
	C104.981384,92.404671 113.017479,85.105583 122.304871,78.660828 
	C125.471130,76.944969 128.313293,75.301056 131.534363,73.571495 
	C137.840576,71.747940 143.767883,70.010017 149.695190,68.272095 
	C150.690826,69.999580 151.686478,71.727058 152.858459,73.781677 
z"/>
<path fill="#FAFAF9" opacity="1.000000" stroke="none" 
	d="
M159.823563,180.960953 
	C159.705048,180.804459 159.586517,180.647964 159.457886,179.784271 
	C159.358002,172.725647 159.268250,166.374222 159.178482,160.022812 
	C159.267960,144.480087 159.355255,128.937332 159.449814,113.394630 
	C159.460876,111.575172 159.511963,109.755951 159.903107,107.410889 
	C160.528656,106.530067 160.795609,106.174980 161.062546,105.819901 
	C165.123093,106.685028 166.317810,109.096207 166.245895,113.263718 
	C166.011597,126.841881 166.243393,140.428085 166.250458,154.919556 
	C166.286057,159.242783 166.367035,162.657669 166.448013,166.072540 
	C166.347931,170.411926 166.247849,174.751297 165.689621,179.555115 
	C163.428848,180.333359 161.626205,180.647156 159.823563,180.960953 
z"/>
<path fill="#FDFEFD" opacity="1.000000" stroke="none" 
	d="
M242.022583,139.011475 
	C243.521790,138.673447 245.020981,138.335403 247.075562,137.978989 
	C247.630936,137.960602 248.007278,138.000946 248.007294,138.000946 
	C248.043762,142.026321 248.080246,146.051697 247.848282,150.885712 
	C247.722214,160.796646 247.864578,169.898926 248.006958,179.001221 
	C248.043289,183.026688 248.079620,187.052155 247.849152,191.875946 
	C247.445419,195.800629 247.308487,198.926971 246.787048,201.989655 
	C244.620071,201.616379 242.837585,201.306747 240.925751,200.658081 
	C240.654007,199.862503 240.511627,199.405975 240.369232,198.949448 
	C240.430283,195.562454 240.491348,192.175446 240.565292,188.002121 
	C240.523361,176.488327 240.468536,165.760864 240.413712,155.033401 
	C240.491638,150.009827 240.569580,144.986237 240.827240,139.528961 
	C241.345520,139.067322 241.684052,139.039398 242.022583,139.011475 
z"/>
<path fill="#EFF0EF" opacity="1.000000" stroke="none" 
	d="
M145.296585,182.025772 
	C145.234116,182.686356 145.130203,183.346024 145.115448,184.007675 
	C144.919708,192.783829 142.581100,194.985626 133.151886,194.808075 
	C133.060928,193.285080 132.967728,191.724533 132.856537,189.862915 
	C138.548874,189.910095 139.022430,186.501083 138.897446,182.191437 
	C138.762283,177.529663 137.530212,172.269684 143.833679,169.319626 
	C137.784698,166.245560 138.630859,160.978912 138.791870,156.037918 
	C138.927017,151.891174 138.941528,148.067963 133.094589,148.454376 
	C133.094589,146.699631 133.094589,145.253662 133.094589,143.829651 
	C142.759659,142.957550 145.174667,145.163345 145.141220,154.620529 
	C145.135330,156.284958 145.261246,157.962204 145.099869,159.611359 
	C144.668457,164.020584 146.614426,166.200851 151.353683,166.743149 
	C151.694366,168.694733 151.694366,170.157944 151.694366,171.518829 
	C144.660477,173.822586 144.605606,173.916306 145.296585,182.025772 
z"/>
<path fill="#272F37" opacity="1.000000" stroke="none" 
	d="
M240.003906,155.016144 
	C240.468536,165.760864 240.523361,176.488327 240.424271,187.601456 
	C235.468903,187.865952 236.942947,184.129868 237.100372,181.775116 
	C237.558105,174.927979 233.696121,170.762695 228.365723,166.579285 
	C227.802643,163.415359 227.712769,160.707458 227.622894,157.999557 
	C227.002563,154.526047 230.160355,150.282013 225.240509,147.366470 
	C224.404800,144.762833 223.836884,142.423447 223.276428,140.114807 
	C231.118240,137.221252 234.741470,139.616135 235.006393,147.597321 
	C235.116852,150.924225 234.967102,154.453217 240.003906,155.016144 
z"/>
<path fill="#F4F3F2" opacity="1.000000" stroke="none" 
	d="
M109.943680,161.981720 
	C108.885719,164.579086 107.827759,167.176453 106.636154,170.101944 
	C111.050827,172.547684 110.178032,177.661865 109.918633,182.373093 
	C109.675789,186.783371 110.408623,190.022156 115.820541,189.945190 
	C115.820541,191.632477 115.820541,193.064529 115.820541,196.159302 
	C111.806656,194.494995 108.500916,193.124298 105.105255,190.985031 
	C104.583321,187.457870 104.151314,184.699310 103.719307,181.940735 
	C102.858582,177.772812 105.247047,171.625702 97.412750,172.171051 
	C97.412750,170.064468 97.412750,168.456161 97.412750,167.379913 
	C99.655495,165.971390 101.508705,164.807510 103.884415,163.099030 
	C104.318748,158.384186 104.230583,154.213943 104.142418,150.043716 
	C105.675377,144.647034 107.580391,143.566177 115.874344,143.563965 
	C115.874344,145.134598 115.874344,146.707626 115.874344,147.821426 
	C113.828705,149.083588 112.031097,150.192734 109.855087,151.970367 
	C109.632355,155.753159 109.788010,158.867447 109.943680,161.981720 
z"/>
<path fill="#FAFAF9" opacity="1.000000" stroke="none" 
	d="
M213.475830,74.416992 
	C211.600464,76.274956 209.460449,77.869446 207.146729,79.763260 
	C205.727859,79.320534 204.482681,78.578476 203.050293,77.284042 
	C202.220398,76.549599 201.577744,76.367546 200.935089,76.185486 
	C195.873489,74.168457 190.811905,72.151428 185.047394,69.944336 
	C181.560547,69.194794 178.776581,68.635315 175.992630,68.075836 
	C173.939255,67.709908 171.885880,67.343987 169.409134,66.497726 
	C168.985764,64.102921 168.985764,62.188457 168.985764,60.249760 
	C170.104919,60.165768 171.026154,60.096630 171.947388,60.027496 
	C180.442505,60.239532 188.775253,60.844269 196.398483,65.409737 
	C201.808014,68.649452 207.593506,71.261383 213.475830,74.416992 
z"/>
<path fill="#FAFAF9" opacity="1.000000" stroke="none" 
	d="
M98.496887,102.152328 
	C95.547607,109.051788 92.598328,115.951256 89.648468,123.230064 
	C89.647873,123.609413 89.682846,123.624931 89.328522,123.787308 
	C88.825264,125.309158 88.676338,126.668633 88.527412,128.028107 
	C87.968361,133.053619 87.409302,138.079147 86.740906,143.556335 
	C84.447853,143.343124 82.264153,142.678238 79.725464,142.010452 
	C79.393219,139.648651 79.415955,137.289764 79.842621,134.396683 
	C80.193428,132.915054 80.140320,131.967590 80.087204,131.020142 
	C80.159500,129.956970 80.231789,128.893799 80.700256,127.397049 
	C81.086617,126.314163 81.076797,125.664856 81.066971,125.015556 
	C81.142258,124.265076 81.217537,123.514595 81.701599,122.363968 
	C82.132744,121.321953 82.155106,120.680069 82.177475,120.038193 
	C85.012611,113.200783 87.847755,106.363380 91.249084,99.280777 
	C92.206940,99.021355 92.598618,99.007133 93.296173,99.166718 
	C95.233673,100.277802 96.865280,101.215065 98.496887,102.152328 
z"/>
<path fill="#FBFCFC" opacity="1.000000" stroke="none" 
	d="
M165.001205,241.842377 
	C163.377838,241.923553 161.754471,242.004745 159.500549,242.117462 
	C159.500549,226.728668 159.500549,211.712067 160.054535,196.322449 
	C162.394302,195.633392 164.180069,195.317352 165.965851,195.001312 
	C166.020508,210.031342 166.075165,225.061371 165.825928,240.644135 
	C165.287720,241.363068 165.114105,241.578232 165.001205,241.842377 
z"/>
<path fill="#FAFAF9" opacity="1.000000" stroke="none" 
	d="
M235.264786,231.023117 
	C235.120926,233.810074 234.977081,236.597031 234.799942,240.028885 
	C232.368027,239.921539 230.034180,239.818512 227.197708,239.693314 
	C227.197708,227.438660 226.932648,215.561646 227.468536,203.720886 
	C227.554062,201.831070 231.231949,200.103821 233.699219,198.521423 
	C234.357727,198.917343 234.597031,199.023544 234.867294,199.060043 
	C234.867294,199.060043 235.111679,199.129990 235.078827,199.485779 
	C235.118912,210.235428 235.191849,220.629272 235.264786,231.023117 
z"/>
<path fill="#F6F7F5" opacity="1.000000" stroke="none" 
	d="
M98.743423,101.949371 
	C96.865280,101.215065 95.233673,100.277802 93.301804,98.812210 
	C93.018776,97.574524 93.036026,96.865166 93.053276,96.155800 
	C99.327660,85.828903 107.873894,77.791527 118.439224,71.686554 
	C119.894112,74.243515 120.937447,76.488136 121.980774,78.732765 
	C113.017479,85.105583 104.981384,92.404671 98.743423,101.949371 
z"/>
<path fill="#F4F3F2" opacity="1.000000" stroke="none" 
	d="
M150.052887,68.133713 
	C143.767883,70.010017 137.840576,71.747940 131.497437,73.161606 
	C129.664505,70.766647 128.247375,68.695946 126.830246,66.625244 
	C136.996796,61.343060 147.934906,59.338093 159.578018,58.606636 
	C159.578018,61.387280 159.578018,63.790096 159.578018,66.527542 
	C156.535507,67.014671 153.473038,67.504997 150.052887,68.133713 
z"/>
<path fill="#F5F6F6" opacity="1.000000" stroke="none" 
	d="
M241.055115,200.997116 
	C242.837585,201.306747 244.620071,201.616379 246.793488,202.452179 
	C247.188583,213.294525 246.904617,223.622238 247.317230,233.922058 
	C247.526627,239.149033 245.759262,240.972351 240.798553,240.094620 
	C240.721649,237.320267 240.644760,234.545898 240.596130,230.974075 
	C240.767990,220.450104 240.911560,210.723618 241.055115,200.997116 
z"/>
<path fill="#EDEEEF" opacity="1.000000" stroke="none" 
	d="
M100.546005,208.002762 
	C100.546005,218.433105 100.546005,228.863449 100.546005,239.685883 
	C98.111740,239.685883 95.734688,239.685883 92.645889,239.685883 
	C92.645889,237.123795 92.645889,234.524750 92.648392,231.030090 
	C92.752800,224.095932 92.854706,218.057388 93.320206,212.003494 
	C95.971191,210.659683 98.258598,209.331223 100.546005,208.002762 
z"/>
<path fill="#F8F8F8" opacity="1.000000" stroke="none" 
	d="
M95.104706,124.421539 
	C96.801620,120.131905 98.510597,116.238197 100.485107,112.130676 
	C103.611870,112.623352 106.473083,113.329849 109.762070,114.052643 
	C107.129875,120.228920 104.323097,126.536850 100.860741,132.461685 
	C99.775200,134.319260 96.925293,135.145782 94.472198,136.047150 
	C93.856056,134.556595 93.650688,133.463150 93.445328,132.369690 
	C94.002464,129.852280 94.559608,127.334877 95.104706,124.421539 
z"/>
<path fill="#323A40" opacity="1.000000" stroke="none" 
	d="
M240.925751,200.658081 
	C240.911560,210.723618 240.767990,220.450104 240.476303,230.561005 
	C238.921310,230.971100 237.514435,230.996780 235.686172,231.022797 
	C235.191849,220.629272 235.118912,210.235428 235.142624,199.375870 
	C236.706009,198.936310 238.172729,198.962463 240.004349,198.969025 
	C240.511627,199.405975 240.654007,199.862503 240.925751,200.658081 
z"/>
<path fill="#FBFCFC" opacity="1.000000" stroke="none" 
	d="
M186.755615,78.045700 
	C185.111710,80.553940 183.225449,82.994179 180.890350,85.750572 
	C179.974167,86.327370 179.506790,86.588013 179.039429,86.848648 
	C178.580536,86.824486 178.121658,86.800331 177.260315,86.353653 
	C175.917435,85.908257 174.977005,85.885376 174.036591,85.862503 
	C172.090561,85.862503 170.144531,85.862503 167.870514,85.862503 
	C167.870514,81.800728 167.870514,78.254128 167.870514,74.315880 
	C169.641266,74.315880 171.370438,74.315880 173.832336,74.484497 
	C177.374161,75.123947 180.183273,75.594788 182.992371,76.065620 
	C182.992371,76.065620 183.154068,76.328453 183.464081,76.612717 
	C184.526550,77.208527 185.279022,77.520088 186.031479,77.831642 
	C186.192078,77.880333 186.352661,77.929016 186.755615,78.045700 
z"/>
<path fill="#323A40" opacity="1.000000" stroke="none" 
	d="
M145.667343,182.024658 
	C144.605606,173.916306 144.660477,173.822586 151.694366,171.518829 
	C151.694366,170.157944 151.694366,168.694733 151.738388,166.843994 
	C153.995743,164.319931 156.209076,162.183365 158.800446,160.034821 
	C159.268250,166.374222 159.358002,172.725647 159.313766,179.527481 
	C154.428619,178.278992 150.255569,180.293945 145.667343,182.024658 
z"/>
<path fill="#2E353C" opacity="1.000000" stroke="none" 
	d="
M92.956619,212.018845 
	C92.854706,218.057388 92.752800,224.095932 92.517868,230.588470 
	C90.925186,231.035767 89.465546,231.029068 87.639862,231.019409 
	C87.179344,224.307465 87.084869,217.598465 87.435013,210.423859 
	C89.340012,210.664017 90.800377,211.369827 92.431030,212.016449 
	C92.601326,211.957245 92.956612,212.018845 92.956619,212.018845 
z"/>
<path fill="#FAFAF9" opacity="1.000000" stroke="none" 
	d="
M227.288223,158.017395 
	C227.712769,160.707458 227.802643,163.415359 228.002808,166.562729 
	C227.915131,169.152222 227.717148,171.302261 227.330200,174.098724 
	C226.385269,176.495987 225.629303,178.246826 224.873322,179.997665 
	C223.657761,179.416275 222.442184,178.834900 221.040558,177.661774 
	C221.368576,171.047638 221.882675,165.025208 222.396759,159.002808 
	C223.915695,158.680283 225.434616,158.357758 227.288223,158.017395 
z"/>
<path fill="#C6CACC" opacity="1.000000" stroke="none" 
	d="
M240.896790,240.445862 
	C245.759262,240.972351 247.526627,239.149033 247.317230,233.922058 
	C246.904617,223.622238 247.188583,213.294525 247.177994,202.515839 
	C247.308487,198.926971 247.445419,195.800629 247.794891,192.336334 
	C248.007401,208.186050 248.007401,224.373749 248.007401,241.281387 
	C245.715286,241.123093 243.355164,240.960083 240.896790,240.445862 
z"/>
<path fill="#F5F6F6" opacity="1.000000" stroke="none" 
	d="
M166.073547,194.545868 
	C164.180069,195.317352 162.394302,195.633392 160.215973,195.942352 
	C159.717148,191.236404 159.610855,186.537537 159.664062,181.399811 
	C161.626205,180.647156 163.428848,180.333359 165.584167,180.008942 
	C166.018311,184.695709 166.099777,189.393066 166.073547,194.545868 
z"/>
<path fill="#EDEDEB" opacity="1.000000" stroke="none" 
	d="
M126.508820,66.765976 
	C128.247375,68.695946 129.664505,70.766647 131.118530,73.247238 
	C128.313293,75.301056 125.471130,76.944969 122.304878,78.660828 
	C120.937447,76.488136 119.894112,74.243515 118.793961,71.585083 
	C121.220566,69.749748 123.703972,68.328224 126.508820,66.765976 
z"/>
<path fill="#F0F2F1" opacity="1.000000" stroke="none" 
	d="
M100.649323,207.607681 
	C98.258598,209.331223 95.971191,210.659683 93.320198,212.003494 
	C92.956612,212.018845 92.601326,211.957245 92.559296,211.566833 
	C92.649994,207.452835 92.782722,203.729233 93.127457,199.898804 
	C93.607018,199.612686 93.824638,199.385559 93.992340,199.110596 
	C98.269104,200.123001 101.759544,201.791519 100.649323,207.607681 
z"/>
<path fill="#1A2128" opacity="1.000000" stroke="none" 
	d="
M92.915451,200.005630 
	C92.782722,203.729233 92.649994,207.452835 92.389008,211.626038 
	C90.800377,211.369827 89.340012,210.664017 87.551819,209.966675 
	C87.159172,205.955536 87.094345,201.935928 87.132423,197.464020 
	C88.800949,197.545242 90.366570,198.078796 92.267365,199.066513 
	C92.706841,199.682327 92.811142,199.843979 92.915451,200.005630 
z"/>
<path fill="#434A50" opacity="1.000000" stroke="none" 
	d="
M166.864624,166.056396 
	C166.367035,162.657669 166.286057,159.242783 166.328552,155.377426 
	C168.708572,156.294647 170.965103,157.662369 173.615417,159.016083 
	C174.097748,161.048141 174.186310,163.094193 174.157944,165.565430 
	C171.787735,166.007172 169.534485,166.023712 166.864624,166.056396 
z"/>
<path fill="#323A40" opacity="1.000000" stroke="none" 
	d="
M183.007568,75.705811 
	C180.183273,75.594788 177.374161,75.123947 174.257599,74.437096 
	C174.586945,72.408813 175.223755,70.596535 175.926590,68.430054 
	C178.776581,68.635315 181.560547,69.194794 184.676605,69.948181 
	C184.346741,71.876724 183.684738,73.611366 183.007568,75.705811 
z"/>
<path fill="#C6CACC" opacity="1.000000" stroke="none" 
	d="
M248.135376,178.616119 
	C247.864578,169.898926 247.722214,160.796646 247.794678,151.346130 
	C248.094269,160.075607 248.179031,169.153305 248.135376,178.616119 
z"/>
<path fill="#EDEDEB" opacity="1.000000" stroke="none" 
	d="
M198.119141,82.543236 
	C196.688736,83.827675 193.972321,85.990593 193.572800,85.624550 
	C191.732635,83.938698 190.538513,81.547691 189.135986,79.010056 
	C192.072937,79.825996 194.986588,81.041458 198.119141,82.543236 
z"/>
<path fill="#272F37" opacity="1.000000" stroke="none" 
	d="
M214.806030,142.918030 
	C212.976624,142.761856 211.207962,142.188156 209.206268,141.357269 
	C210.157425,139.572388 211.341614,138.044693 212.525818,136.517014 
	C213.306137,138.511520 214.086456,140.506012 214.806030,142.918030 
z"/>
<path fill="#F8F8F8" opacity="1.000000" stroke="none" 
	d="
M229.121155,134.431152 
	C229.890915,132.221039 230.817169,130.334457 232.219696,128.194580 
	C232.906372,127.928459 233.116776,127.915642 233.327164,127.902824 
	C233.350357,128.355072 233.373535,128.807327 233.223785,129.904114 
	C233.415085,131.019836 233.779343,131.491043 234.143600,131.962234 
	C235.870712,138.728989 231.265366,134.461182 229.121155,134.431152 
z"/>
<path fill="#EDEDEB" opacity="1.000000" stroke="none" 
	d="
M103.984299,150.412064 
	C104.230583,154.213943 104.318748,158.384186 104.137985,162.789047 
	C103.854767,158.942596 103.840469,154.861496 103.984299,150.412064 
z"/>
<path fill="#2E353C" opacity="1.000000" stroke="none" 
	d="
M87.613892,187.015045 
	C87.181786,185.285355 87.110832,183.556091 87.148697,181.406158 
	C88.694160,182.351395 90.130798,183.717346 91.567429,185.083282 
	C90.369965,185.727341 89.172508,186.371399 87.613892,187.015045 
z"/>
<path fill="#C6CACC" opacity="1.000000" stroke="none" 
	d="
M171.657852,59.896091 
	C171.026154,60.096630 170.104919,60.165768 168.985764,60.249760 
	C168.985764,62.188457 168.985764,64.102921 169.019745,66.422485 
	C168.555710,64.339279 168.057709,61.850956 167.559692,59.362633 
	C168.829239,59.496651 170.098785,59.630672 171.657852,59.896091 
z"/>
<path fill="#EDEDEB" opacity="1.000000" stroke="none" 
	d="
M229.211349,103.310165 
	C231.054214,106.223930 232.948883,109.500999 234.817139,113.173492 
	C232.948212,110.270432 231.105682,106.971954 229.211349,103.310165 
z"/>
<path fill="#EDEDEB" opacity="1.000000" stroke="none" 
	d="
M110.059181,161.616211 
	C109.788010,158.867447 109.632355,155.753159 109.720436,152.326385 
	C110.034355,155.092834 110.104523,158.171753 110.059181,161.616211 
z"/>
<path fill="#DEE1E1" opacity="1.000000" stroke="none" 
	d="
M103.561874,182.361603 
	C104.151314,184.699310 104.583321,187.457870 104.988914,190.651489 
	C100.951332,188.973648 104.342896,185.471848 103.561874,182.361603 
z"/>
<path fill="#EDEDEB" opacity="1.000000" stroke="none" 
	d="
M236.389252,119.334061 
	C237.322525,120.917709 238.111862,122.866562 238.837936,125.214890 
	C237.931564,123.642662 237.088440,121.670959 236.389252,119.334061 
z"/>
<path fill="#272F37" opacity="1.000000" stroke="none" 
	d="
M224.948212,180.249496 
	C225.629303,178.246826 226.385269,176.495987 227.423645,174.485199 
	C227.092239,176.405548 226.478439,178.585876 225.521515,180.884766 
	C225.126648,180.835983 225.074890,180.668655 224.948212,180.249496 
z"/>
<path fill="#C6CACC" opacity="1.000000" stroke="none" 
	d="
M248.108978,137.723114 
	C248.007278,138.000946 247.630936,137.960602 247.454254,137.898285 
	C247.104721,136.513214 246.931870,135.190460 246.857117,133.472717 
	C247.373688,134.533569 247.792191,135.989441 248.108978,137.723114 
z"/>
<path fill="#C6CACC" opacity="1.000000" stroke="none" 
	d="
M93.165329,132.579712 
	C93.650688,133.463150 93.856056,134.556595 94.124100,136.204742 
	C93.669403,136.879990 93.152039,137.000534 92.634674,137.121063 
	C92.718224,135.677277 92.801781,134.233505 93.165329,132.579712 
z"/>
<path fill="#2E353C" opacity="1.000000" stroke="none" 
	d="
M88.836716,127.865189 
	C88.676338,126.668633 88.825264,125.309158 89.309402,123.789627 
	C89.478424,124.987129 89.312225,126.344704 88.836716,127.865189 
z"/>
<path fill="#323A40" opacity="1.000000" stroke="none" 
	d="
M209.280243,82.678658 
	C210.185150,82.869095 211.041702,83.429268 212.048889,84.259407 
	C209.948090,86.565056 209.527328,84.932304 209.280243,82.678658 
z"/>
<path fill="#EDEDEB" opacity="1.000000" stroke="none" 
	d="
M242.013290,138.651718 
	C241.684052,139.039398 241.345520,139.067322 240.753571,139.069962 
	C240.343338,137.967590 240.186523,136.890503 240.099670,135.401123 
	C240.781082,136.089890 241.392532,137.190918 242.013290,138.651718 
z"/>
<path fill="#EDEDEB" opacity="1.000000" stroke="none" 
	d="
M174.312897,86.011101 
	C174.977005,85.885376 175.917435,85.908257 176.952301,86.192116 
	C176.227585,86.355293 175.408386,86.257500 174.312897,86.011101 
z"/>
<path fill="#D9DBDC" opacity="1.000000" stroke="none" 
	d="
M79.916718,131.297119 
	C80.140320,131.967590 80.193428,132.915054 80.001556,133.983643 
	C79.753120,133.261215 79.749672,132.417648 79.916718,131.297119 
z"/>
<path fill="#EFF0EF" opacity="1.000000" stroke="none" 
	d="
M222.364075,123.275833 
	C222.986649,123.787376 223.496704,124.602486 223.991119,125.739319 
	C223.400848,125.233818 222.826202,124.406601 222.364075,123.275833 
z"/>
<path fill="#EDEDEB" opacity="1.000000" stroke="none" 
	d="
M186.859283,89.389679 
	C187.703888,89.428284 188.744934,89.716713 189.907898,90.323334 
	C189.038452,90.307526 188.047089,89.973518 186.859283,89.389679 
z"/>
<path fill="#323A40" opacity="1.000000" stroke="none" 
	d="
M217.057068,97.185440 
	C216.475632,96.827599 215.905273,96.172241 215.277710,95.222961 
	C215.836380,95.582008 216.452255,96.234970 217.057068,97.185440 
z"/>
<path fill="#EDEDEB" opacity="1.000000" stroke="none" 
	d="
M92.790985,96.292290 
	C93.036026,96.865166 93.018776,97.574524 92.995911,98.638397 
	C92.598618,99.007133 92.206940,99.021355 91.521240,99.028427 
	C91.661041,98.157112 92.094864,97.292946 92.790985,96.292290 
z"/>
<path fill="#EDEDEB" opacity="1.000000" stroke="none" 
	d="
M179.257584,87.011436 
	C179.506790,86.588013 179.974167,86.327370 180.716461,86.044724 
	C181.004501,86.338974 181.028778,86.654373 181.055847,87.206322 
	C180.523544,87.353889 179.999649,87.264053 179.257584,87.011436 
z"/>
<path fill="#EFF0EF" opacity="1.000000" stroke="none" 
	d="
M201.081757,76.442795 
	C201.577744,76.367546 202.220398,76.549599 202.865326,77.030388 
	C202.321198,77.119438 201.774811,76.909767 201.081757,76.442795 
z"/>
<path fill="#EDEDEB" opacity="1.000000" stroke="none" 
	d="
M183.220184,88.127579 
	C183.655777,88.013710 184.291153,88.099709 184.976501,88.434761 
	C184.490967,88.565018 183.955475,88.446228 183.220184,88.127579 
z"/>
<path fill="#434A50" opacity="1.000000" stroke="none" 
	d="
M185.918213,77.503677 
	C185.279022,77.520088 184.526550,77.208527 183.617233,76.593994 
	C184.241898,76.585922 185.023422,76.880821 185.918213,77.503677 
z"/>
<path fill="#272F37" opacity="1.000000" stroke="none" 
	d="
M202.943665,138.599167 
	C202.448547,138.776917 201.894455,138.687103 201.135925,138.397156 
	C201.582550,138.241882 202.233627,138.286743 202.943665,138.599167 
z"/>
<path fill="#EDEEEF" opacity="1.000000" stroke="none" 
	d="
M160.913971,105.585487 
	C160.795609,106.174980 160.528656,106.530067 160.049347,106.967468 
	C160.146423,106.483543 160.455902,105.917305 160.913971,105.585487 
z"/>
<path fill="#C6CACC" opacity="1.000000" stroke="none" 
	d="
M174.748550,173.123474 
	C175.076401,173.465759 175.295761,174.071167 175.346115,174.819290 
	C174.998093,174.436874 174.819092,173.911743 174.748550,173.123474 
z"/>
<path fill="#D9DBDC" opacity="1.000000" stroke="none" 
	d="
M82.004486,120.259056 
	C82.155106,120.680069 82.132744,121.321953 81.886223,122.032318 
	C81.718544,121.560509 81.775017,121.020210 82.004486,120.259056 
z"/>
<path fill="#D9DBDC" opacity="1.000000" stroke="none" 
	d="
M80.884705,125.235001 
	C81.076797,125.664856 81.086617,126.314163 80.865028,127.030731 
	C80.656555,126.550156 80.679504,126.002296 80.884705,125.235001 
z"/>
<path fill="#434A50" opacity="1.000000" stroke="none" 
	d="
M233.505676,127.730591 
	C233.116776,127.915642 232.906372,127.928459 232.386078,127.878372 
	C232.069107,127.384544 232.061996,126.953621 232.199310,126.233490 
	C232.790558,126.482307 233.237381,127.020325 233.505676,127.730591 
z"/>
<path fill="#434A50" opacity="1.000000" stroke="none" 
	d="
M234.344788,131.811554 
	C233.779343,131.491043 233.415085,131.019836 233.217026,130.243958 
	C233.770813,130.513138 234.158386,131.087006 234.344788,131.811554 
z"/>
<path fill="#272F37" opacity="1.000000" stroke="none" 
	d="
M216.901947,144.368042 
	C216.302673,144.408340 215.597809,144.158249 214.778168,143.598099 
	C215.374374,143.551239 216.085373,143.814438 216.901947,144.368042 
z"/>
<path fill="#272F37" opacity="1.000000" stroke="none" 
	d="
M210.112823,196.935562 
	C210.099716,196.724579 210.287476,196.438782 210.724854,196.238129 
	C210.792358,196.549347 210.572083,196.728500 210.112823,196.935562 
z"/>
<path fill="#D1D4D5" opacity="1.000000" stroke="none" 
	d="
M234.912903,198.754532 
	C234.597031,199.023544 234.357727,198.917343 234.061523,198.564636 
	C234.301941,198.408218 234.630234,198.428619 234.912903,198.754532 
z"/>
<path fill="#EDEEEF" opacity="1.000000" stroke="none" 
	d="
M93.127457,199.898804 
	C92.811142,199.843979 92.706841,199.682327 92.520950,199.243881 
	C92.703819,198.930145 92.968269,198.893188 93.612534,198.983429 
	C93.824638,199.385559 93.607018,199.612686 93.127457,199.898804 
z"/>
<path fill="#434A50" opacity="1.000000" stroke="none" 
	d="
M225.924469,109.746933 
	C225.708527,109.807716 225.396622,109.668640 225.117096,109.255829 
	C225.410522,109.128723 225.636856,109.317039 225.924469,109.746933 
z"/>
<path fill="#EDEEEF" opacity="1.000000" stroke="none" 
	d="
M165.278168,241.894470 
	C165.114105,241.578232 165.287720,241.363068 165.707672,241.099854 
	C165.780579,241.317383 165.667862,241.631958 165.278168,241.894470 
z"/>
<path fill="#434A50" opacity="1.000000" stroke="none" 
	d="
M177.828003,147.057755 
	C177.851135,147.316696 177.665146,147.616806 177.231873,147.781754 
	C177.128937,147.386322 177.340347,147.203766 177.828003,147.057755 
z"/>
<path fill="#2B323A" opacity="1.000000" stroke="none" 
	d="
M222.297791,158.581390 
	C221.882675,165.025208 221.368576,171.047638 220.743866,177.473694 
	C217.146988,187.133972 209.215027,191.663361 201.035553,195.626831 
	C199.706451,196.270859 196.614197,194.600555 195.058563,193.198975 
	C190.772125,189.337006 186.302216,185.450607 183.008560,180.793350 
	C180.737564,177.582138 179.825195,173.147217 179.186676,169.119522 
	C178.569031,165.223663 179.362076,161.124115 179.013504,157.159958 
	C178.669235,153.245163 180.189590,151.143524 183.775497,149.926376 
	C188.161530,148.437576 192.369385,146.354416 196.824570,145.167252 
	C199.159897,144.544937 201.948059,144.919418 204.372498,145.503998 
	C207.748016,146.317886 210.974289,147.750732 214.876175,149.155121 
	C216.322861,149.600906 217.157822,149.810242 217.992767,150.019592 
	C222.519089,151.118759 222.454910,154.589783 222.297791,158.581390 
M205.769791,172.055649 
	C209.712845,167.973557 213.655899,163.891464 217.820190,159.580338 
	C215.393875,158.151260 213.568924,157.076370 211.332489,155.759125 
	C207.498154,160.536636 203.711655,165.254547 199.348251,170.237259 
	C196.657715,168.554886 193.967194,166.872498 191.364197,165.244858 
	C189.828903,166.512955 188.312668,167.765335 186.606384,169.174698 
	C190.863922,173.242126 194.636780,176.846527 198.841965,180.863953 
	C201.127060,177.702286 203.110641,174.957794 205.769791,172.055649 
z"/>
<path fill="#EDEDEB" opacity="1.000000" stroke="none" 
	d="
M217.936371,149.713943 
	C217.157822,149.810242 216.322861,149.600906 215.252838,149.161774 
	C215.971817,149.090744 216.925903,149.249512 217.936371,149.713943 
z"/>
<path fill="#F8F8F8" opacity="1.000000" stroke="none" 
	d="
M106.715950,102.998123 
	C107.015640,102.061752 107.662430,101.119164 108.576111,100.062180 
	C109.377785,100.390137 109.912567,100.832489 110.447350,101.274849 
	C109.319244,101.847198 108.191147,102.419556 106.715950,102.998123 
z"/>
<path fill="#EFF0EF" opacity="1.000000" stroke="none" 
	d="
M220.439377,103.613075 
	C219.811279,104.532791 219.139282,105.441978 218.467285,106.351166 
	C218.173126,106.008827 217.878967,105.666489 217.584793,105.324158 
	C218.280075,104.802734 218.975357,104.281311 220.022583,103.637314 
	C220.374527,103.514732 220.395477,103.602554 220.439377,103.613075 
z"/>
<path fill="#EFF0EF" opacity="1.000000" stroke="none" 
	d="
M205.094238,172.213287 
	C203.110641,174.957794 201.127060,177.702286 198.841965,180.863953 
	C194.636780,176.846527 190.863922,173.242126 186.606384,169.174698 
	C188.312668,167.765335 189.828903,166.512955 191.364197,165.244858 
	C193.967194,166.872498 196.657715,168.554886 200.007401,170.122681 
	C202.142441,170.743164 203.618332,171.478226 205.094238,172.213287 
z"/>
<path fill="#EDEDEB" opacity="1.000000" stroke="none" 
	d="
M205.432007,172.134476 
	C203.618332,171.478226 202.142441,170.743164 200.295853,169.990280 
	C203.711655,165.254547 207.498154,160.536636 211.332489,155.759125 
	C213.568924,157.076370 215.393875,158.151260 217.820190,159.580338 
	C213.655899,163.891464 209.712845,167.973557 205.432007,172.134476 
z"/>
</svg>