<?xml version="1.0" encoding="UTF-8"?>
<svg version="1.1" viewBox="160 160 1011 1011" xmlns="http://www.w3.org/2000/svg">
<g transform="translate(0, 78)" fill="#FFFFFF" stroke="white" stroke-width="12">
<path transform="translate(672,91)" d="m0 0h5l1 1v41l-1 1-20 1-27 4-24 5-27 8-21 7-27 12-22 11-15 9-15 10-10 7-16 12-13 11-8 7-10 9-17 17-7 8-12 14-13 18-9 14-8 13-12 22-10 21-9 24-9 27-7 30-4 27-2 20v523l-2 1-38 1-1-173v-356l3-30 4-29 7-30 9-31 9-21 7-16 10-19 7-14 10-16 8-12 12-17 14-17 9-11 9-9 7-8 15-14 12-11 11-9 18-14 14-9 13-8 15-9 23-12 36-15 27-9 32-8 37-6z"/>
<path transform="translate(719,91)" d="m0 0h9l38 4 32 6 31 8 23 8 24 9 29 14 23 13 16 10 15 11 12 9 13 11 8 7 4 3v2l4 2 28 28 9 11 12 15 13 18 10 15 13 22 14 29 10 24 7 21 9 35 6 35 2 19 1 19v527l-1 1-37-1-1-1v-511l-3-37-6-35-8-29-10-29-7-16-14-28-17-28-12-17-9-10-8-10-9-10-7-8-11-11-8-7-12-11-14-11-17-13-18-11-20-12-16-9-21-9-23-9-34-10-23-5-26-4-24-2v-41z"/>
<path transform="translate(662,171)" d="m0 0h16l1 1v58l-1 1-26 2-30 5-30 9-16 6-22 10-36 21-12 9-9 7-17 14-17 17h-2l-2 4-7 7-9 11-11 14-12 18-12 19-12 23-12 28-6 17-6 5-16 8-23 14h-1v-8l6-32 6-23 9-27 6-14 11-24 11-20 11-17 12-17 13-16 7-8 15-16 11-11 11-9 12-10 13-10 3-1v-2l10-6 13-8 16-9 19-10 25-10 24-8 25-6 31-5z"/>
<path transform="translate(720,171)" d="m0 0h19l37 6 32 8 22 8 20 8 15 7 23 13 20 13 11 8 13 10 10 9 8 7 12 11 12 12 9 11 16 21 16 24 9 15 12 24 7 18 5 12 7 21 8 34 3 20v6l-5-2-17-10-21-12-4-8-10-25-11-24-14-24-14-21-10-13-11-13-16-17-10-10-11-9-10-9-17-12-16-10-17-10-16-8-25-11-29-9-21-5-29-4-12-1z"/>
<path transform="translate(885,503)" d="m0 0 8 1 29 11 47 17 30 11 27 10 1 1 1 98-1 23-3 19-8 24-11 20-12 16-9 11-8 7-10 10-16 12-13 9-15 10-24 13-6 3-5-1-27-15-19-12-11-8-11-9-10-9-15-15-9-11-9-13-11-21-6-18-3-13-2-14v-115l13-6 36-14 17-6 27-11 18-7zm0 29-24 10-20 8-32 13-18 7-7 3-2 2v86l2 18 6 21 8 16 9 14 9 11 4 5h2l2 4h2v2l11 9 13 11 20 13 11 7 10 4 16-8 19-12 4-3v-2l5-2 10-8 13-11 11-12 8-11 5-7 6-11 7-19 3-14 1-9v-94l-12-5-18-7-18-6-23-9-31-11-7-3z"/>
<path transform="translate(676,333)" d="m0 0 5 2 12 7 14 7 3 3v682h-34z"/>
<path transform="translate(642,1056)" d="m0 0h10l2 6 1 19v28l-302 2h-170l-2-1 5-27 2-15 6-1 27-1 109-2 150-4 125-3z"/>
<path transform="translate(742,1056)" d="m0 0 56 1 73 2 145 3 190 4 5 24 3 16v3h-473l-1-1v-51z"/>
<path transform="translate(447,526)" d="m0 0h4l1 8v14l-1 6-16 1-9 3-4 5-1 3-1 67-4 10-7 9-10 6 1 3 9 5v2h2l7 11 2 6 1 42 1 22 3 9 12 3 15 1v28l-24-1-17-4-10-7-7-8-4-9-1-5-1-62-4-11-6-4-7-2-14-1-1-1v-30l17-2 10-5 4-6 1-5 1-68 3-10 6-9 8-7 7-3 19-3z"/>
<path transform="translate(539,526)" d="m0 0h12l27 4 10 5 8 8 4 8 2 10 1 67 4 9 8 5 4 1 15 1 1 4v26l-7 2-13 2-9 5-4 10v26l-1 40-4 10-7 9-9 6-12 4-8 1-22 1v-28l19-2 7-3 4-6 1-62 3-12 6-8 8-6 6-3h2v-2l-7-2-10-9-6-12-1-3-1-63-3-8-1-3-10-3-16-1-2-4v-22z"/>
<path transform="translate(331,801)" d="m0 0 15 8 12 7 14 7 1 104v94l-32 3h-9l-1-89-1-41v-92z"/>
<path transform="translate(1062,802)" d="m0 0h4v221l-26-1-14-1v-191l1-8 15-8 19-11z"/>
<path transform="translate(943,593)" d="m0 0 6 2 19 10 6 4-1 4-13 15-13 14-9 11-10 11-7 8-7 7-9 11-14 15-7 8-6 5-13-12-16-15-15-15-8-7-10-9 6-7 4-2v-2l8-7 7-6 4 1 12 11 17 16 5 1 7-7 1-2h2l2-4 8-10h2l2-4 14-15 9-11 11-12z"/>
</g>
</svg>
