<?xml version="1.0" encoding="UTF-8" standalone="no"?>
<!DOCTYPE svg PUBLIC "-//W3C//DTD SVG 20010904//EN"
              "http://www.w3.org/TR/2001/REC-SVG-20010904/DTD/svg10.dtd">

<svg xmlns="http://www.w3.org/2000/svg"
     width="52.9241mm" height="52.9241mm"
     viewBox="0 0 200 200">
  <path id="Selection"
        fill="white" stroke="white" stroke-width="4"
        d="M 16.00,182.00
           C 16.00,182.00 16.00,148.00 16.00,148.00
             16.00,148.00 15.00,125.00 15.00,125.00
             15.00,125.00 15.97,115.00 15.97,115.00
             15.97,115.00 15.97,99.00 15.97,99.00
             15.97,99.00 15.97,79.00 15.97,79.00
             16.05,47.28 37.13,20.85 65.00,7.78
             73.11,3.98 86.05,1.20 95.00,1.00
             95.00,1.00 95.00,9.00 95.00,9.00
             61.93,9.30 33.06,35.99 24.88,67.00
             20.61,83.21 22.98,83.79 23.00,98.00
             23.00,98.00 23.00,182.00 23.00,182.00
             23.00,182.00 16.00,182.00 16.00,182.00 Z
           M 104.00,1.00
           C 113.00,1.41 123.60,3.56 132.00,6.81
             139.00,9.53 144.91,13.05 151.00,17.43
             156.30,21.23 160.35,25.00 164.56,30.00
             187.58,57.32 184.00,84.00 184.00,117.00
             184.00,117.00 184.00,183.00 184.00,183.00
             184.00,183.00 177.00,183.00 177.00,183.00
             177.00,183.00 177.00,84.00 177.00,84.00
             176.94,46.05 142.35,9.35 104.00,9.00
             104.00,9.00 104.00,1.00 104.00,1.00 Z
           M 29.00,79.00
           C 32.66,51.87 48.39,30.79 74.00,20.45
             80.69,17.75 87.90,16.94 95.00,16.00
             95.00,16.00 95.00,27.00 95.00,27.00
             75.28,29.62 62.27,36.24 49.47,52.00
             36.98,67.37 42.49,73.13 29.00,79.00 Z
           M 104.00,16.00
           C 114.86,17.95 120.39,17.90 131.00,22.89
             150.98,32.27 169.50,55.28 170.00,78.00
             156.84,72.27 163.80,68.52 150.38,52.00
             137.62,36.30 123.66,29.61 104.00,27.00
             104.00,27.00 104.00,16.00 104.00,16.00 Z
           M 96.00,48.00
           C 96.00,48.00 101.43,51.39 101.43,51.39
             101.43,51.39 102.00,58.00 102.00,58.00
             102.00,58.00 102.00,81.00 102.00,81.00
             102.00,81.00 102.00,184.00 102.00,184.00
             102.00,184.00 96.00,184.00 96.00,184.00
             96.00,184.00 96.00,48.00 96.00,48.00 Z
           M 111.00,90.00
           C 111.00,90.00 137.00,81.29 137.00,81.29
             137.00,81.29 163.00,90.00 163.00,90.00
             163.00,90.00 163.00,111.00 163.00,111.00
             162.98,124.30 157.94,130.94 147.00,138.33
             144.33,140.13 140.32,143.17 137.00,142.97
             132.10,142.68 121.45,134.61 118.21,130.96
             108.52,120.05 111.00,103.63 111.00,90.00 Z
           M 136.00,86.43
           C 132.11,87.14 119.04,91.27 117.02,94.39
             115.89,96.14 115.69,106.18 115.51,109.00
             114.88,119.00 120.28,127.24 128.00,133.10
             130.36,134.90 133.91,137.60 137.00,137.50
             139.82,137.41 143.73,134.58 146.00,132.96
             158.06,124.35 159.25,113.84 159.00,100.00
             158.96,98.22 159.03,96.02 157.98,94.50
             155.82,91.36 139.96,86.58 136.00,86.43 Z
           M 34.00,114.00
           C 34.59,106.60 37.45,109.06 39.40,103.96
             41.37,98.82 36.86,88.09 47.00,86.11
             47.00,86.11 52.00,86.11 52.00,86.11
             52.00,86.11 46.60,94.14 46.60,94.14
             46.60,94.14 45.77,104.00 45.77,104.00
             45.77,104.00 41.00,112.00 41.00,112.00
             51.68,120.89 39.98,129.35 52.00,132.00
             52.00,132.00 51.00,137.00 51.00,137.00
             47.64,136.36 43.15,135.81 41.17,132.66
             37.18,126.30 44.55,117.82 34.00,114.00 Z
           M 69.00,86.11
           C 69.00,86.11 74.00,86.11 74.00,86.11
             84.14,88.09 79.63,98.82 81.60,103.96
             83.55,109.06 86.41,106.60 87.00,114.00
             77.23,116.97 82.96,124.20 80.26,130.98
             78.28,135.97 73.70,136.60 69.00,137.00
             69.00,137.00 69.00,132.00 69.00,132.00
             81.61,129.22 68.73,118.84 80.00,112.00
             80.00,112.00 80.00,110.00 80.00,110.00
             69.07,104.16 81.34,94.36 69.00,90.00
             69.00,90.00 69.00,86.11 69.00,86.11 Z
           M 147.00,98.00
           C 147.00,98.00 153.00,101.00 153.00,101.00
             149.97,106.19 138.82,118.47 134.00,122.00
             126.45,114.47 121.53,112.59 128.00,107.00
             128.00,107.00 136.00,113.00 136.00,113.00
             136.00,113.00 147.00,98.00 147.00,98.00 Z
           M 170.00,140.00
           C 171.60,144.03 171.00,148.72 171.00,153.00
             171.00,153.00 171.00,175.00 171.00,175.00
             170.83,184.15 164.15,183.81 164.00,175.00
             164.00,175.00 164.00,155.00 164.00,155.00
             164.00,152.63 163.77,147.17 164.60,145.18
             165.61,142.76 167.95,141.44 170.00,140.00 Z
           M 29.00,141.00
           C 31.63,141.79 34.19,142.43 35.40,145.21
             36.28,147.23 36.00,154.44 36.00,157.00
             36.00,157.00 36.00,182.00 36.00,182.00
             36.00,182.00 29.00,182.00 29.00,182.00
             29.00,182.00 29.00,141.00 29.00,141.00 Z
           M 2.00,191.00
           C 2.00,191.00 19.00,191.00 19.00,191.00
             19.00,191.00 31.00,190.04 31.00,190.04
             31.00,190.04 47.00,190.04 47.00,190.04
             47.00,190.04 64.00,189.00 64.00,189.00
             64.00,189.00 91.00,189.00 91.00,189.00
             91.00,189.00 91.00,198.00 91.00,198.00
             91.00,198.00 48.00,198.00 48.00,198.00
             48.00,198.00 32.00,199.00 32.00,199.00
             32.00,199.00 1.00,199.00 1.00,199.00
             1.00,199.00 2.00,191.00 2.00,191.00 Z
           M 108.00,189.00
           C 108.00,189.00 165.00,190.00 165.00,190.00
             165.00,190.00 180.00,191.00 180.00,191.00
             180.00,191.00 198.00,191.00 198.00,191.00
             198.00,191.00 199.00,199.00 199.00,199.00
             199.00,199.00 172.00,199.00 172.00,199.00
             172.00,199.00 153.00,198.00 153.00,198.00
             153.00,198.00 108.00,198.00 108.00,198.00
             108.00,198.00 108.00,189.00 108.00,189.00 Z" />
</svg>
