<svg xmlns="http://www.w3.org/2000/svg" width="24" height="24" viewBox="0 0 24 24" fill="none">
  <defs>
    <mask id="checkmark-mask">
      <rect width="24" height="24" fill="white" />
      <path d="M15.5 13.5l1 1 2.2-2.2" stroke="black" stroke-width="1.1" stroke-linecap="square" stroke-linejoin="miter" fill="none"/>
    </mask>
  </defs>

  <g fill="#C5C5C5">
    <path d="M12 2.5C6.8 2.5 2.5 6.8 2.5 12v9h2v-9c0-4.1 3.4-7.5 7.5-7.5s7.5 3.4 7.5 7.5v9h2v-9c0-5.2-4.3-9.5-9.5-9.5z"/>

    <rect x="11.5" y="6" width="1" height="15" rx="0.1"/>

    <path d="M8.2 9.5c-.5 0-.8.3-.8.8v1.7c0 .4-.2.6-.5.7.3.1.5.3.5.7v1.7c0 .5.3.8.8.8" stroke="#C5C5C5" stroke-width="1.2" stroke-linecap="square" fill="none"/>
    <path d="M9.8 9.5c.5 0 .8.3 .8.8v1.7c0 .4 .2 .6 .5 .7-.3 .1-.5 .3-.5 .7v1.7c0 .5-.3 .8-.8 .8" stroke="#C5C5C5" stroke-width="1.2" stroke-linecap="square" fill="none"/>

    <path mask="url(#checkmark-mask)" d="M14.5 10.5v3.5c0 2 1.8 3.5 2.5 4 .7-.5 2.5-2 2.5-4v-3.5l-2.5-1-2.5 1z"/>

    <rect x="1.5" y="21" width="21" height="1.5" rx="0.1"/>
  </g>
</svg>